<?xml version="1.0" standalone="no"?><!DOCTYPE svg PUBLIC "-//W3C//DTD SVG 1.1//EN" "http://www.w3.org/Graphics/SVG/1.1/DTD/svg11.dtd"><svg t="1691029384318" class="icon" viewBox="0 0 1024 1024" version="1.1" xmlns="http://www.w3.org/2000/svg" p-id="3185" xmlns:xlink="http://www.w3.org/1999/xlink" width="200" height="200"><path d="M742.7 996.1H2c-1.1 0-2-0.9-2-2v-70.5c0-1.1 0.9-2 2-2h740.7c1.1 0 2 0.9 2 2v70.5c0 1.1-0.9 2-2 2zM629.7 27.9H115c-22.4 0-40.6 18.2-40.6 40.6v853.1h595.8V68.5c0.1-22.4-18.1-40.6-40.5-40.6zM475.5 442.8L373.8 619c-4.8 8.3-17.4 4.9-17.5-4.6l-0.6-102.9c0-5.2-4.2-9.3-9.4-9.3h-66.6c-7.2 0-11.7-7.8-8.1-14.1l101.7-176.2c4.8-8.3 17.4-4.9 17.5 4.6l0.6 102.9c0 5.2 4.2 9.3 9.4 9.3h66.6c7.2 0.1 11.7 7.9 8.1 14.1zM817.2 549.2H670.3v-74.5h146.9c1.1 0 2 0.9 2 2v70.5c0 1.1-0.9 2-2 2z" fill="#2c2c2c" p-id="3186"></path><path d="M744.7 845.1V476.8c0-1.1 0.9-2 2-2h70.5c1.1 0 2 0.9 2 2v368.4c0 1.1-0.9 2-2 2h-70.5c-1.1-0.1-2-1-2-2.1zM893.7 845.1V325.8h74.5v519.3c0 1.1-0.9 2-2 2h-70.5c-1.1 0-2-0.9-2-2z" fill="#2c2c2c" p-id="3187"></path><path d="M746.7 772.7h219.4c1.1 0 2 0.9 2 2v70.5c0 1.1-0.9 2-2 2H746.7c-1.1 0-2-0.9-2-2v-70.5c0-1.2 0.9-2 2-2zM838.7 251.3h184.5c0.5 0 0.9 0.4 0.9 0.9V325c0 0.5-0.4 0.9-0.9 0.9H838.7c-0.5 0-0.9-0.4-0.9-0.9v-72.8c0-0.5 0.4-0.9 0.9-0.9z" fill="#2c2c2c" p-id="3188"></path><path d="M893.718 251.3V139.6h74.5v111.7z" fill="#2c2c2c" p-id="3189"></path></svg>