<?xml version="1.0" standalone="no"?><!DOCTYPE svg PUBLIC "-//W3C//DTD SVG 1.1//EN" "http://www.w3.org/Graphics/SVG/1.1/DTD/svg11.dtd"><svg t="1691025562108" class="icon" viewBox="0 0 1024 1024" version="1.1" xmlns="http://www.w3.org/2000/svg" p-id="9814" xmlns:xlink="http://www.w3.org/1999/xlink" width="200" height="200"><path d="M985.363318 962.078961h-131.006496v-58.338831h-59.874063V993.295352c0 1.535232 0 3.582209 0.511744 5.117442 2.558721 15.352324 14.328836 24.051974 27.122439 25.587206H985.363318c16.887556 0 30.704648-13.817091 30.704648-30.704648s-13.817091-31.216392-30.704648-31.216391zM874.314843 751.24038c-5.629185-26.610695-20.469765-40.93953-32.23988-47.592204-27.634183-16.887556-60.385807-9.211394-63.968016-8.187906l-3.070465 1.023488-2.558721 1.535233c-29.169415 15.864068-64.47976 33.775112-83.414293 40.93953-2.046977-5.117441-4.093953-11.258371-6.140929-16.887556-4.093953-11.770115-9.211394-26.098951-15.352324-40.939531-2.046977-10.234883-8.187906-33.775112-29.68116-94.672663 11.258371 17.3993 23.028486 34.286857 35.310345 51.174412 9.211394 15.352324 24.051974 26.610695 41.451275 31.216392 17.911044 5.117441 36.845577 2.558721 53.221389-6.652673 33.263368-18.934533 45.033483-61.409295 26.09895-95.184408-2.046977-4.093953-4.605697-8.187906-7.676161-13.305348-40.93953-72.155922-88.01999-150.964518-131.518241-172.457771l-1.023489-0.511744c-63.456272-27.634183-132.541729-34.286857-200.603698-19.958021-58.850575 13.817091-101.325337 64.991504-123.842079 92.113943-2.046977 2.558721-4.605697 5.629185-6.652673 8.187906-13.817091-1.023488-48.103948-9.211394-79.32034-19.446277-2.046977-1.023488-25.075462-5.117441-48.615692-4.605697V64.991504c0-1.023488 0.511744-1.535232 1.535232-1.535232h594.134933c1.023488 0 1.535232 1.023488 1.535232 1.535232v443.170415h61.409295V64.991504c0-35.822089-28.145927-64.991504-62.944527-64.991504h-593.623189C161.455272 0 133.309345 29.169415 133.309345 64.991504V962.078961H38.636682c-16.887556 0-30.704648 13.817091-30.704648 30.704647s13.817091 30.704648 30.704648 30.704648h125.889055c16.887556 0 30.704648-13.817091 30.704648-30.704648v-1.023488-1.023488c0-1.535232-0.511744-3.070465-0.511744-4.605697v-413.489256l4.605697 1.535233 1.023488 1.023488 7.164418 1.535232c1.023488 0 112.071964 24.051974 141.753123 31.728136 29.169415 7.676162 55.268366-13.305347 75.226387-33.263368 5.117441 14.84058 11.258371 31.216392 16.887556 46.568715-14.328836 3.582209-29.681159 8.187906-42.474762 12.793604-56.291854 19.446277-69.597201 33.775112-73.179411 49.63918-3.070465 13.817091-34.286857 143.288356-50.662668 211.350325-3.070465 7.676162-9.211394 28.657671 1.023488 50.150924 8.69965 19.446277 27.122439 32.751624 53.733133 39.916042 9.723138 2.558721 18.934533 4.093953 27.634183 4.093953 14.84058 0 27.634183-4.093953 38.38081-11.770115 19.446277-14.328836 24.051974-35.822089 25.587206-44.521739 12.793603-48.615692 32.751624-122.818591 39.916042-147.382308 14.328836-5.117441 46.056972-11.258371 60.897552-11.770115 4.605697 8.187906 11.770115 24.051974 17.3993 36.333833 27.122439 58.850575 47.08046 98.254873 78.296851 105.931034 51.686157 12.793603 162.222889-49.63918 199.58021-72.155922 29.681159-9.211394 68.061969-40.427786 56.803599-93.137431z m-77.785108 46.056971l-3.070465 2.046977c-60.897551 36.845577-140.217891 72.667666-163.246376 68.061969-12.281859-7.164418-33.775112-54.244878-44.52174-77.273363-17.911044-39.404298-27.122439-59.362319-45.545227-64.479761-15.352324-4.093953-43.498251 0-64.47976 4.605698-49.127436 10.234883-56.803598 20.469765-60.897551 30.704647-3.582209 9.211394-32.23988 116.677661-44.009995 162.222889l-0.511744 2.55872v2.558721s-1.023488 6.652674-4.605698 9.211394-12.281859 2.558721-22.516741 0c-10.746627-3.070465-18.422789-7.164418-20.469765-11.770115-2.046977-4.093953-0.511744-9.211394 0-10.234882l1.023488-1.535233 0.511744-3.070464c2.046977-7.676162 41.963018-171.946027 50.150925-209.303349 17.3993-12.281859 85.461269-33.263368 100.813593-33.775112h35.822089l-11.258371-33.775112c-8.187906-24.563718-19.446277-55.78011-28.657671-80.855573-5.117441-13.305347-9.211394-25.075462-11.258371-31.728136l-7.164418-20.981509-22.516741 3.582209c-11.258371 2.558721-18.422789 10.234883-30.704648 23.028486-7.164418 7.676162-28.145927 30.704648-36.845577 31.216392-27.122439-7.164418-111.048476-25.075462-136.635683-30.704648l-7.164417-1.535232c-2.558721-0.511744-15.864068-5.117441-20.469765-12.793604-1.023488-1.535232-3.070465-4.605697-0.511745-12.793603 2.046977-8.187906 5.629185-10.234883 6.652674-10.746627 6.652674-3.582209 17.911044-1.535232 23.028486 0 100.301849 33.263368 115.654173 21.493253 123.842079 15.352324 5.117441-4.093953 10.234883-10.234883 17.911044-19.446277 18.934533-22.516742 54.244878-64.991504 95.184408-74.202898 56.803598-12.281859 115.142429-6.14093 168.875562 16.887556 32.751624 16.375812 88.01999 114.118941 109.0015 151.476262 3.070465 5.117441 5.629185 9.723138 7.676161 13.817091 5.117441 8.69965 2.046977 20.469765-7.164417 25.587207-4.093953 2.558721-9.211394 3.070465-14.328836 1.535232-4.605697-1.535232-8.69965-4.605697-11.258371-8.69965l-1.535232-2.558721c-25.587206-35.310345-49.63918-72.155922-71.644178-110.024987-16.375812-28.145927-41.963018-39.404298-63.968016-27.634183-18.422789 9.723138-22.516742 27.634183 0.511744 104.907546l0.511744 1.535233c16.375812 45.545227 34.798601 100.301849 36.845577 112.071964v4.605697l2.558721 5.117441c6.14093 13.305347 10.746627 27.122439 14.84058 39.404298 8.187906 24.563718 14.328836 42.474763 30.192903 50.662669 11.258371 6.14093 23.54023 12.793603 128.959521-45.033484 5.117441-1.023488 15.352324-1.023488 21.493253 2.558721 1.535232 1.023488 6.14093 4.093953 8.69965 14.84058 5.117441 23.54023-15.352324 31.728136-24.051974 33.775112l-4.093953 1.023488z" p-id="9815"></path><path d="M306.790605 216.467766c-7.676162 28.145927-3.582209 58.850575 11.258371 84.437781 14.84058 25.587206 39.404298 44.009995 67.550224 51.686157 9.211394 2.558721 18.934533 3.582209 28.145927 3.582209 49.127436 0 94.16092-32.751624 106.954523-82.390805 15.352324-58.850575-19.446277-119.748126-78.296851-135.612193-59.362319-15.864068-119.748126 19.446277-135.612194 78.296851zM471.06047 260.477761c-8.187906 31.728136-40.93953 50.662669-72.667666 42.474763-15.352324-4.093953-28.657671-14.328836-36.333833-27.634183-7.676162-13.817091-10.234883-30.192904-6.14093-45.545228 7.164418-26.610695 31.216392-44.009995 57.315342-44.009995 5.117441 0 10.234883 0.511744 15.352324 2.046977 32.23988 8.187906 51.174413 40.93953 42.474763 72.667666z" p-id="9816"></path></svg>