<?xml version="1.0" standalone="no"?><!DOCTYPE svg PUBLIC "-//W3C//DTD SVG 1.1//EN" "http://www.w3.org/Graphics/SVG/1.1/DTD/svg11.dtd"><svg t="1691029622812" class="icon" viewBox="0 0 1024 1024" version="1.1" xmlns="http://www.w3.org/2000/svg" p-id="6478" xmlns:xlink="http://www.w3.org/1999/xlink" width="200" height="200"><path d="M810.666667 597.333333l62.72 127.018667 140.16 20.394667-101.418667 98.901333 23.893333 139.605333L810.666667 917.333333l-125.397334 65.92 23.936-139.605333-101.418666-98.901333 140.202666-20.394667L810.666667 597.333333z m-298.666667 25.514667c50.858667 0 125.354667 13.781333 223.402667 41.429333l-12.501334 25.6-196.266666 28.501334 141.994666 138.453333-10.368 60.458667L170.666667 917.333333v-149.76c0-39.936 23.722667-74.965333 57.984-85.504v-0.085333c128.128-39.466667 222.592-59.136 283.349333-59.136zM692.48 388.266667c0 103.253333-81.194667 187.733333-180.48 187.733333-96.341333 0-175.701333-79.573333-180.309333-178.688L331.52 388.266667h361.045333zM512 106.666667c14.421333 0 28.885333 1.194667 43.306667 4.565333l10.837333 2.944V238.08h36.096V129.194667c62.293333 32.384 104.661333 97.536 108.117333 173.952l0.213334 10.026666h36.096v37.546667h-469.333334v-37.546667h36.096c0-77.354667 39.808-144.384 100.266667-179.584l8.064-4.394666V238.08h36.096V114.176A179.626667 179.626667 0 0 1 512 106.666667z" fill="#2c2c2c" p-id="6479"></path></svg>