<?xml version="1.0" standalone="no"?><!DOCTYPE svg PUBLIC "-//W3C//DTD SVG 1.1//EN" "http://www.w3.org/Graphics/SVG/1.1/DTD/svg11.dtd"><svg t="1691025522485" class="icon" viewBox="0 0 1024 1024" version="1.1" xmlns="http://www.w3.org/2000/svg" p-id="7952" xmlns:xlink="http://www.w3.org/1999/xlink" width="200" height="200"><path d="M995.714793 411.183873l-23.765263-18.629289 0.156566-0.273223L840.928474 280.880155l0-2.681062-3.157923 0L516.376681 5.256724l0-0.140193-0.156566 0.039909-0.039909-0.039909 0 0.140193L60.510142 392.282385l0.156566 0.273223-23.669072 18.629289L21.291932 423.416476l0 92.924389 86.571704 0 0 497.871211 816.990273 0L924.853909 516.339842l86.511329 0L1011.365238 423.416476 995.714793 411.183873zM189.117219 399.514089 516.219091 113.549126 704.667068 278.199093l-52.40658 0 0 121.239272L525.121855 399.438365l0 121.982192L397.120576 521.420557 397.120576 645.791146 271.078928 645.791146l0 123.476219-81.960687 0L189.118242 399.514089zM843.518462 937.306522 189.117219 937.306522 189.117219 831.696206l144.591119 0L333.708338 707.931415l127.491673 0L461.20001 585.145927l127.020952 0L588.220962 461.734176l127.295198 0L715.51616 340.045673l59.936067 0 68.065212 59.46944L843.517439 937.306522zM660.536988 604.164073 584.181973 767.656681l65.962318 0-46.904263 163.513074 191.020568-199.827141-70.038146 0 89.137133-127.178541L660.536988 604.164073z" fill="#93A7BF" p-id="7953"></path></svg>