<?xml version="1.0" standalone="no"?><!DOCTYPE svg PUBLIC "-//W3C//DTD SVG 1.1//EN" "http://www.w3.org/Graphics/SVG/1.1/DTD/svg11.dtd"><svg t="1691029184282" class="icon" viewBox="0 0 1024 1024" version="1.1" xmlns="http://www.w3.org/2000/svg" p-id="1610" xmlns:xlink="http://www.w3.org/1999/xlink" width="200" height="200"><path d="M916.544 124.224a14.08 14.08 0 0 0 12.245333-3.712l20.330667-19.605333a14.122667 14.122667 0 0 0-19.562667-20.309334l-20.330666 19.584a14.122667 14.122667 0 0 0 7.317333 24.042667z m62.933333 129.365333a14.293333 14.293333 0 0 0 4.416 0.085334l27.946667-3.904a14.122667 14.122667 0 0 0-3.904-27.968l-27.946667 3.904a14.122667 14.122667 0 0 0-0.512 27.882666z m8.874667 128.597334l-24.896-13.269334a14.101333 14.101333 0 1 0-13.269333 24.896l24.896 13.269334c6.890667 3.626667 15.402667 1.024 19.114666-5.802667a14.165333 14.165333 0 0 0-5.845333-19.093333zM552.618667 149.866667l-24.917334-13.269334a14.122667 14.122667 0 0 0-13.248 24.896l24.896 13.290667c6.890667 3.605333 15.402667 1.002667 19.114667-5.824a14.165333 14.165333 0 0 0-5.845333-19.072z m313.258666 325.162666a14.122667 14.122667 0 0 0-25.386666 12.330667l12.330666 25.386667a14.122667 14.122667 0 1 0 25.386667-12.330667l-12.330667-25.386667zM636.864 68.693333a14.122667 14.122667 0 1 0 25.386667-12.352l-12.330667-25.386666a14.122667 14.122667 0 0 0-25.386667 12.352l12.330667 25.386666z m152.746667-12.16a14.08 14.08 0 0 0 16.362666-11.434666l4.906667-27.776A14.101333 14.101333 0 0 0 783.146667 12.394667l-4.949334 27.776a14.08 14.08 0 0 0 11.434667 16.362666zM823.402667 741.333333L719.573333 292.906667c-7.04-30.762667-37.290667-54.912-67.584-54.912H174.890667c-30.293333 0-60.544 24.149333-67.584 54.890666L3.477333 741.333333c-13.333333 58.304 13.034667 97.450667 57.749334 97.450667h704.426666c44.714667 0 71.082667-39.125333 57.749334-97.450667zM778.453333 786.346667c-5.76 7.104-14.293333 10.666667-25.386666 10.666666H73.856c-11.072 0-19.626667-3.562667-25.386667-10.666666-8.853333-10.858667-11.008-29.546667-5.952-51.2l100.138667-422.698667c4.16-17.749333 22.826667-32.725333 40.810667-32.725333h459.989333c17.962667 0 36.650667 14.997333 40.810667 32.810666l100.117333 422.549334c5.056 21.717333 2.88 40.405333-5.973333 51.264z" fill="#333333" p-id="1611"></path><path d="M370.410667 301.781333H207.168c-19.968 0-39.466667 15.274667-43.498667 34.474667l-23.253333 111.232c-4.906667 23.637333 9.813333 43.605333 32.96 43.605333H362.666667c23.146667 0 42.261333-19.968 42.517333-43.605333l1.173333-111.232c0.213333-19.221333-15.978667-34.474667-35.946666-34.474667z m95.786666 189.312h187.946667c22.997333 0 37.632-19.968 32.725333-43.605333l-23.125333-111.232c-3.989333-19.221333-23.36-34.474667-43.2-34.474667h-162.133333c-19.797333 0-35.84 15.274667-35.626667 34.474667l1.173333 111.232c0.256 23.637333 19.242667 43.605333 42.24 43.605333z m-104.384 14.4h-192c-23.488 0-47.125333 21.162667-52.736 47.914667l-33.109333 158.144c-7.189333 34.261333 9.6 63.445333 37.610667 63.445333H350.72c27.989333 0 51.221333-29.141333 51.605333-63.445333l1.664-158.144c0.277333-26.752-18.688-47.914667-42.176-47.914667z m348.202667 47.914667c-5.589333-26.752-29.056-47.914667-52.373333-47.914667h-190.634667c-23.317333 0-42.154667 21.162667-41.856 47.914667l1.664 158.144c0.384 34.261333 23.424 63.445333 51.221333 63.445333h227.52c27.818667 0 44.501333-29.141333 37.354667-63.445333l-32.896-158.144z m-181.973333 369.813333h-79.786667v-31.018666a31.018667 31.018667 0 1 0-62.037333 0v31.018666h-79.829334c-15.872 0-28.757333 12.842667-28.757333 28.736v4.565334c0 15.872 12.864 28.757333 28.757333 28.757333h221.653334c15.893333 0 28.778667-12.885333 28.778666-28.757333v-4.565334c0-15.872-12.885333-28.736-28.757333-28.736zM751.36 74.325333a197.461333 197.461333 0 0 0-187.221333 134.954667h120.384c30.293333 0 60.544 24.128 67.584 54.890667l46.165333 199.338666c86.4-21.056 150.613333-98.773333 150.613333-191.658666a197.525333 197.525333 0 0 0-197.504-197.546667z" fill="#333333" p-id="1612"></path></svg>