<?xml version="1.0" standalone="no"?><!DOCTYPE svg PUBLIC "-//W3C//DTD SVG 1.1//EN" "http://www.w3.org/Graphics/SVG/1.1/DTD/svg11.dtd"><svg t="1691029506795" class="icon" viewBox="0 0 1153 1024" version="1.1" xmlns="http://www.w3.org/2000/svg" p-id="4336" xmlns:xlink="http://www.w3.org/1999/xlink" width="225.1953125" height="200"><path d="M880.160535 613.0301h48.924988V1002.962255h-48.924988z" p-id="4337"></path><path d="M951.101768 984.126135l-46.478739-26.174869-46.234114 26.174869-24.217869-42.56474 70.451983-39.873865 70.696608 39.873865-24.217869 42.56474zM904.623029 715.52795l-70.451983-40.11849 24.217869-42.320115 46.234114 26.174869 46.478739-26.174869 24.217869 42.320115-70.696608 40.11849zM723.673961 731.673196l24.462494-42.369039 337.680267 194.966077-24.462494 42.36904z" p-id="4338"></path><path d="M1034.029623 936.179646l-48.924989-0.244624 0.733875-81.215481 69.718108-41.09699 24.951744 42.07549-45.989489 27.153368-0.489249 53.328237zM754.667941 802.859054l-24.707119-42.320115 45.989489-26.908743 0.489249-53.328237 48.924988 0.244625-0.733874 81.21548-69.962733 41.09699zM723.282561 884.465934l337.729192-194.917152 24.462494 42.393502-337.729192 194.89269z" p-id="4339"></path><path d="M1055.311992 802.369804l-69.718108-41.09699-0.733874-80.970855 48.924988-0.48925 0.489249 53.328237 45.989489 27.153368-24.951744 42.07549zM776.194935 935.690397l-0.489249-53.328237-45.989489-26.908744 24.707119-42.320115 69.962733 41.09699 0.733875 81.215481-48.924989 0.244625zM1153.161968 574.623985H0V0h1153.161968zM48.924988 525.698997h1055.311992V48.924988H48.924988zM217.471572 990.486383A152.645963 152.645963 0 0 1 146.774964 900.464405a146.774964 146.774964 0 0 1 24.462494-115.462972 78.769231 78.769231 0 0 0 14.677497-65.314859 92.957477 92.957477 0 0 0-47.701864-48.924988l18.836121-45.010989A140.659341 140.659341 0 0 1 232.393693 704.519828a124.75872 124.75872 0 0 1-19.81462 106.656474 101.274725 101.274725 0 0 0-18.83612 77.790731 101.763975 101.763975 0 0 0 48.924988 59.199236zM544.290492 990.486383a151.667463 151.667463 0 0 1-71.185858-90.021978 146.774964 146.774964 0 0 1 24.462495-115.462972 79.013856 79.013856 0 0 0 14.677496-65.559484A90.021978 90.021978 0 0 0 464.787387 672.229336l18.591495-45.255614a139.925466 139.925466 0 0 1 75.344482 77.546106 124.024845 124.024845 0 0 1-19.814621 106.656474 101.274725 101.274725 0 0 0-18.83612 77.790731 102.9871 102.9871 0 0 0 48.924988 59.199236zM380.881032 1024a152.645963 152.645963 0 0 1-71.430483-90.021978 148.487339 148.487339 0 0 1 24.462494-115.218347 79.013856 79.013856 0 0 0 14.677497-65.559484 91.000478 91.000478 0 0 0-47.457239-47.457238L320.458672 660.487339a139.680841 139.680841 0 0 1 75.344481 77.790731 124.26947 124.26947 0 0 1-19.81462 106.656474 100.54085 100.54085 0 0 0-18.83612 77.546106 101.763975 101.763975 0 0 0 48.924988 59.44386z" p-id="4340"></path><path d="M137.479216 281.318681h878.448161v48.924988H137.479216zM137.479216 384.795031h878.448161v48.924988H137.479216z" p-id="4341"></path></svg>