<svg t="1691116437197" class="icon" viewBox="0 0 1024 1024" version="1.1" xmlns="http://www.w3.org/2000/svg" p-id="5656" width="200" height="200"><path d="M0 0h1024v1024H0z" fill="#202425" opacity=".01" p-id="5657"></path><path d="M341.333333 102.4a68.266667 68.266667 0 0 1 68.266667-68.266667h204.8a68.266667 68.266667 0 0 1 68.266667 68.266667h102.4a102.4 102.4 0 0 1 102.4 102.4v614.4a170.666667 170.666667 0 0 1-170.666667 170.666667H307.2a170.666667 170.666667 0 0 1-170.666667-170.666667V204.8a102.4 102.4 0 0 1 102.4-102.4h102.4z m477.866667 102.4a34.133333 34.133333 0 0 0-34.133333-34.133333h-136.533334a34.133333 34.133333 0 0 1-34.133333-34.133334V102.4h-204.8v34.133333a34.133333 34.133333 0 0 1-34.133333 34.133334H238.933333a34.133333 34.133333 0 0 0-34.133333 34.133333v34.133333h614.4V204.8z m0 102.4H204.8v477.866667h614.4V307.2zM307.2 921.6h409.6a102.434133 102.434133 0 0 0 96.597333-68.266667H210.602667A102.434133 102.434133 0 0 0 307.2 921.6z m265.557333-524.8a34.133333 34.133333 0 1 0-53.248-42.666667l-136.533333 170.666667A34.133333 34.133333 0 0 0 409.6 580.266667h133.802667l-92.16 115.2a34.133333 34.133333 0 1 0 53.248 42.666666l136.533333-170.666666A34.133333 34.133333 0 0 0 614.4 512h-133.802667l92.16-115.2z" fill="#202425" p-id="5658"></path></svg>
